<svg xmlns="http://www.w3.org/2000/svg" xmlns:xlink="http://www.w3.org/1999/xlink" width="2000" zoomAndPan="magnify" viewBox="0 0 1500 1499.999933" height="2000" preserveAspectRatio="xMidYMid meet" version="1.0"><defs><g/><clipPath id="6779bf8a31"><path d="M 339.484375 439.59375 L 510.484375 439.59375 L 510.484375 574.59375 L 339.484375 574.59375 Z M 339.484375 439.59375 " clip-rule="nonzero"/></clipPath><clipPath id="db7406f43b"><path d="M 0.589844 0.59375 L 171.484375 0.59375 L 171.484375 135.59375 L 0.589844 135.59375 Z M 0.589844 0.59375 " clip-rule="nonzero"/></clipPath><clipPath id="12b24bae34"><rect x="0" width="172" y="0" height="136"/></clipPath><clipPath id="fc2d462948"><rect x="0" width="394" y="0" height="604"/></clipPath><clipPath id="56bfcae24b"><rect x="0" width="395" y="0" height="619"/></clipPath><clipPath id="cee4f8860c"><path d="M 997.59375 667.203125 L 1168.59375 667.203125 L 1168.59375 802.203125 L 997.59375 802.203125 Z M 997.59375 667.203125 " clip-rule="nonzero"/></clipPath><clipPath id="79d4c48998"><rect x="0" width="400" y="0" height="88"/></clipPath></defs><g clip-path="url(#6779bf8a31)"><g transform="matrix(1, 0, 0, 1, 339, 439)"><g clip-path="url(#12b24bae34)"><g clip-path="url(#db7406f43b)"><path fill="#ffffff" d="M 0.5625 20.550781 C 0.601562 18.835938 0.675781 17.113281 0.800781 15.386719 C 0.863281 14.519531 0.9375 13.652344 1.027344 12.777344 C 1.070312 12.335938 1.121094 11.894531 1.175781 11.449219 L 1.261719 10.769531 L 1.316406 10.414062 L 1.378906 9.996094 L 2.828125 0.613281 L 10.945312 5.8125 C 14.199219 7.890625 17.574219 9.714844 21.078125 11.269531 C 24.582031 12.828125 28.210938 14.121094 31.972656 15.203125 C 35.726562 16.28125 39.613281 17.167969 43.585938 17.976562 C 47.5625 18.78125 51.628906 19.503906 55.742188 20.28125 C 59.851562 21.054688 64.011719 21.863281 68.167969 22.789062 C 72.328125 23.71875 76.484375 24.757812 80.613281 25.929688 C 84.742188 27.09375 88.828125 28.421875 92.871094 29.855469 C 94.894531 30.578125 96.902344 31.328125 98.898438 32.109375 C 100.890625 32.898438 102.871094 33.714844 104.835938 34.558594 L 105.277344 34.75 L 105.632812 34.90625 L 106.34375 35.222656 L 107.410156 35.703125 L 107.796875 35.886719 C 108.824219 36.378906 109.878906 36.867188 110.847656 37.375 C 112.832031 38.363281 114.757812 39.46875 116.667969 40.585938 C 120.457031 42.878906 124.121094 45.386719 127.5625 48.160156 C 131.015625 50.917969 134.269531 53.910156 137.328125 57.074219 C 140.371094 60.246094 143.214844 63.597656 145.847656 67.089844 C 147.164062 68.835938 148.417969 70.625 149.628906 72.441406 C 150.835938 74.253906 152 76.09375 153.105469 77.96875 C 155.3125 81.71875 157.316406 85.570312 159.121094 89.507812 C 160.921875 93.445312 162.515625 97.46875 163.917969 101.5625 C 164.613281 103.613281 165.253906 105.683594 165.839844 107.777344 C 166.132812 108.824219 166.410156 109.878906 166.671875 110.945312 C 166.800781 111.476562 166.925781 112.011719 167.046875 112.558594 L 167.226562 113.382812 L 167.3125 113.804688 L 167.40625 114.28125 L 171.589844 135.769531 L 159.070312 117.929688 L 158.839844 117.601562 L 158.574219 117.234375 L 158.027344 116.492188 C 157.660156 115.996094 157.273438 115.5 156.890625 115.003906 C 156.117188 114.015625 155.324219 113.027344 154.515625 112.054688 C 152.894531 110.109375 151.21875 108.191406 149.496094 106.316406 C 147.773438 104.4375 146 102.601562 144.1875 100.804688 C 142.378906 99.007812 140.523438 97.25 138.625 95.539062 C 136.726562 93.828125 134.792969 92.152344 132.816406 90.53125 C 130.84375 88.90625 128.824219 87.335938 126.769531 85.808594 C 124.714844 84.285156 122.617188 82.816406 120.488281 81.394531 C 118.355469 79.976562 116.183594 78.621094 113.972656 77.320312 C 111.769531 76.011719 109.507812 74.804688 107.230469 73.625 C 104.953125 72.445312 102.625 71.359375 100.269531 70.332031 C 97.917969 69.289062 95.519531 68.367188 93.101562 67.480469 C 90.6875 66.589844 88.226562 65.824219 85.746094 65.105469 C 83.265625 64.398438 80.753906 63.785156 78.222656 63.234375 L 76.320312 62.855469 L 75.363281 62.671875 L 74.40625 62.511719 L 72.488281 62.183594 L 70.558594 61.90625 C 69.917969 61.808594 69.273438 61.734375 68.625 61.660156 C 67.980469 61.589844 67.335938 61.503906 66.6875 61.441406 C 65.390625 61.335938 64.09375 61.183594 62.789062 61.121094 C 62.144531 61.082031 61.488281 61.035156 60.835938 61.003906 L 58.878906 60.933594 C 58.554688 60.921875 58.226562 60.902344 57.898438 60.898438 L 56.917969 60.886719 L 54.953125 60.867188 C 57.558594 60.570312 60.171875 60.3125 62.804688 60.222656 C 64.117188 60.148438 65.433594 60.152344 66.75 60.128906 C 67.410156 60.125 68.066406 60.144531 68.730469 60.152344 C 69.386719 60.160156 70.046875 60.167969 70.707031 60.203125 L 72.6875 60.289062 C 73.347656 60.324219 74.007812 60.378906 74.664062 60.429688 L 75.65625 60.5 L 76.644531 60.597656 L 78.617188 60.800781 C 79.929688 60.972656 81.25 61.117188 82.558594 61.335938 C 83.210938 61.441406 83.871094 61.527344 84.523438 61.648438 L 86.480469 62.011719 C 89.085938 62.53125 91.6875 63.101562 94.253906 63.804688 C 96.828125 64.492188 99.378906 65.269531 101.894531 66.148438 C 104.414062 67.023438 106.914062 67.960938 109.375 69 C 111.835938 70.039062 114.269531 71.144531 116.660156 72.339844 C 119.054688 73.527344 121.414062 74.785156 123.742188 76.105469 C 126.066406 77.425781 128.351562 78.824219 130.597656 80.273438 C 132.847656 81.726562 135.058594 83.234375 137.226562 84.8125 C 139.390625 86.382812 141.523438 88.007812 143.609375 89.6875 C 145.972656 91.59375 148.28125 93.558594 150.542969 95.589844 C 150.28125 95.0625 150.019531 94.53125 149.753906 94.003906 C 147.960938 90.445312 145.984375 86.984375 143.855469 83.636719 C 141.71875 80.292969 139.421875 77.0625 136.949219 73.988281 C 134.488281 70.910156 131.851562 67.980469 129.058594 65.234375 C 126.269531 62.484375 123.324219 59.90625 120.21875 57.546875 C 117.125 55.175781 113.871094 53.035156 110.507812 51.089844 C 108.8125 50.140625 107.105469 49.210938 105.355469 48.371094 C 104.476562 47.925781 103.632812 47.558594 102.78125 47.160156 L 102.460938 47.011719 L 102.105469 46.859375 L 101.386719 46.550781 L 100.671875 46.246094 L 100.3125 46.089844 L 100.222656 46.054688 C 100.242188 46.058594 100.117188 46.007812 100.253906 46.066406 L 100.210938 46.046875 L 100.035156 45.976562 C 96.296875 44.445312 92.527344 43.019531 88.722656 41.707031 C 84.914062 40.402344 81.070312 39.21875 77.1875 38.144531 C 69.421875 35.992188 61.511719 34.363281 53.386719 32.863281 C 49.324219 32.109375 45.207031 31.359375 41.035156 30.511719 C 36.859375 29.652344 32.628906 28.6875 28.398438 27.433594 C 24.175781 26.1875 19.957031 24.667969 15.882812 22.804688 C 14.859375 22.335938 13.84375 21.851562 12.839844 21.34375 C 12.71875 24.269531 12.707031 27.210938 12.828125 30.148438 C 12.953125 33.210938 13.199219 36.273438 13.59375 39.308594 C 13.988281 42.347656 14.5 45.367188 15.175781 48.34375 C 15.847656 51.324219 16.65625 54.269531 17.632812 57.15625 C 18.597656 60.046875 19.722656 62.875 21.011719 65.632812 C 22.285156 68.394531 23.734375 71.070312 25.332031 73.660156 C 26.941406 76.246094 28.699219 78.742188 30.613281 81.121094 C 32.539062 83.496094 34.597656 85.773438 36.8125 87.90625 C 39.015625 90.054688 41.367188 92.0625 43.828125 93.953125 C 45.0625 94.894531 46.324219 95.8125 47.613281 96.683594 C 48.902344 97.566406 50.21875 98.414062 51.558594 99.222656 C 54.234375 100.859375 57.011719 102.351562 59.859375 103.726562 C 62.714844 105.089844 65.632812 106.363281 68.613281 107.5 C 71.597656 108.632812 74.628906 109.683594 77.707031 110.605469 C 79.246094 111.078125 80.792969 111.523438 82.351562 111.945312 C 83.910156 112.363281 85.476562 112.753906 87.050781 113.144531 L 89.414062 113.695312 L 91.792969 114.21875 L 94.175781 114.71875 L 96.574219 115.195312 C 93.316406 115.171875 90.050781 115.023438 86.792969 114.75 C 85.976562 114.675781 85.160156 114.609375 84.34375 114.53125 C 83.535156 114.4375 82.71875 114.355469 81.902344 114.253906 C 80.277344 114.050781 78.648438 113.835938 77.023438 113.570312 L 75.808594 113.371094 L 74.59375 113.152344 C 73.78125 113.011719 72.972656 112.847656 72.164062 112.6875 C 71.351562 112.53125 70.550781 112.34375 69.742188 112.175781 C 68.933594 111.992188 68.132812 111.792969 67.328125 111.601562 C 65.726562 111.191406 64.121094 110.765625 62.53125 110.285156 C 60.9375 109.820312 59.351562 109.300781 57.78125 108.746094 C 54.640625 107.625 51.53125 106.367188 48.496094 104.917969 C 45.457031 103.472656 42.488281 101.847656 39.617188 100.039062 C 38.175781 99.140625 36.773438 98.183594 35.390625 97.1875 C 34.007812 96.195312 32.648438 95.15625 31.332031 94.070312 C 28.691406 91.898438 26.179688 89.550781 23.832031 87.039062 C 21.480469 84.527344 19.296875 81.851562 17.285156 79.046875 C 15.273438 76.242188 13.464844 73.296875 11.820312 70.261719 C 10.179688 67.222656 8.734375 64.082031 7.46875 60.878906 C 6.210938 57.671875 5.125 54.398438 4.222656 51.082031 C 3.328125 47.761719 2.59375 44.40625 2.027344 41.023438 C 1.476562 37.644531 1.0625 34.242188 0.824219 30.824219 C 0.585938 27.410156 0.484375 23.984375 0.5625 20.550781 " fill-opacity="1" fill-rule="nonzero"/></g></g></g></g><g transform="matrix(1, 0, 0, 1, 457, 387)"><g clip-path="url(#fc2d462948)"><g fill="#ffffff" fill-opacity="1"><g transform="translate(1.770804, 483.385716)"><g><path d="M 28.34375 -358.953125 C 28.34375 -380.992188 34.875 -401.300781 47.9375 -419.875 C 61.007812 -438.457031 80.140625 -453.414062 105.328125 -464.75 C 130.515625 -476.09375 161.210938 -481.765625 197.421875 -481.765625 C 226.390625 -481.765625 251.5 -479.71875 272.75 -475.625 C 294.007812 -471.53125 313.769531 -466.332031 332.03125 -460.03125 L 332.03125 -396.75 L 327.3125 -396.75 C 327.3125 -396.75 326.050781 -399.421875 323.53125 -404.765625 C 321.007812 -410.117188 316.757812 -416.734375 310.78125 -424.609375 C 304.800781 -432.484375 296.847656 -440.351562 286.921875 -448.21875 C 277.003906 -456.09375 264.644531 -462.707031 249.84375 -468.0625 C 235.050781 -473.414062 217.578125 -476.09375 197.421875 -476.09375 C 168.140625 -476.09375 143.34375 -470.894531 123.03125 -460.5 C 102.726562 -450.113281 87.378906 -436.890625 76.984375 -420.828125 C 66.597656 -404.773438 61.40625 -387.929688 61.40625 -370.296875 C 61.40625 -354.234375 65.578125 -340.535156 73.921875 -329.203125 C 82.265625 -317.867188 93.597656 -308.109375 107.921875 -299.921875 C 122.242188 -291.734375 138.222656 -284.488281 155.859375 -278.1875 C 173.492188 -271.894531 191.753906 -265.597656 210.640625 -259.296875 C 229.535156 -253.003906 247.800781 -246.15625 265.4375 -238.75 C 283.070312 -231.351562 299.050781 -222.457031 313.375 -212.0625 C 327.707031 -201.675781 339.046875 -189.160156 347.390625 -174.515625 C 355.734375 -159.878906 359.90625 -142.171875 359.90625 -121.390625 C 359.90625 -105.015625 355.8125 -89.03125 347.625 -73.4375 C 339.4375 -57.851562 327.628906 -43.84375 312.203125 -31.40625 C 296.773438 -18.96875 278.195312 -9.046875 256.46875 -1.640625 C 234.738281 5.753906 210.175781 9.453125 182.78125 9.453125 C 162 9.453125 142.160156 6.457031 123.265625 0.46875 C 104.378906 -5.507812 87.0625 -12.984375 71.3125 -21.953125 C 55.570312 -30.929688 41.878906 -39.671875 30.234375 -48.171875 L 30.234375 -111.46875 L 34.953125 -111.46875 C 34.953125 -111.46875 37.390625 -107.6875 42.265625 -100.125 C 47.148438 -92.570312 54.394531 -83.207031 64 -72.03125 C 73.601562 -60.851562 85.410156 -49.671875 99.421875 -38.484375 C 113.429688 -27.304688 129.644531 -17.941406 148.0625 -10.390625 C 166.488281 -2.835938 186.878906 0.9375 209.234375 0.9375 C 226.554688 0.9375 242.691406 -1.894531 257.640625 -7.5625 C 272.597656 -13.226562 285.664062 -20.941406 296.84375 -30.703125 C 308.019531 -40.460938 316.757812 -51.484375 323.0625 -63.765625 C 329.363281 -76.046875 332.515625 -88.796875 332.515625 -102.015625 C 332.515625 -119.648438 328.257812 -134.84375 319.75 -147.59375 C 311.25 -160.34375 299.753906 -171.285156 285.265625 -180.421875 C 270.785156 -189.554688 254.492188 -197.742188 236.390625 -204.984375 C 218.285156 -212.222656 199.628906 -219.148438 180.421875 -225.765625 C 161.210938 -232.378906 142.554688 -239.460938 124.453125 -247.015625 C 106.347656 -254.578125 90.050781 -263.316406 75.5625 -273.234375 C 61.082031 -283.148438 49.59375 -295.113281 41.09375 -309.125 C 32.59375 -323.132812 28.34375 -339.742188 28.34375 -358.953125 Z M 28.34375 -358.953125 "/></g></g></g></g></g><g transform="matrix(1, 0, 0, 1, 649, 372)"><g clip-path="url(#56bfcae24b)"><g fill="#2b554e" fill-opacity="1"><g transform="translate(3.88945, 498.385716)"><g><path d="M 15.644531 -358.964844 C 15.644531 -383.683594 22.949219 -406.425781 37.558594 -427.195312 C 51.960938 -447.671875 72.8125 -464.050781 100.117188 -476.339844 C 126.964844 -488.417969 159.402344 -494.460938 197.429688 -494.460938 C 227.207031 -494.460938 253.117188 -492.335938 275.164062 -488.089844 C 297.011719 -483.882812 317.347656 -478.535156 336.179688 -472.039062 L 344.734375 -469.089844 L 344.734375 -384.054688 L 319.261719 -384.054688 L 312.054688 -399.375 C 309.914062 -403.917969 306.125 -409.773438 300.679688 -416.933594 C 295.339844 -423.960938 288.128906 -431.078125 279.042969 -438.289062 C 270.207031 -445.300781 259.039062 -451.25 245.539062 -456.132812 C 232.136719 -460.980469 216.097656 -463.40625 197.429688 -463.40625 C 170.183594 -463.40625 147.316406 -458.671875 128.820312 -449.210938 C 110.53125 -439.851562 96.804688 -428.097656 87.644531 -413.941406 C 78.613281 -399.980469 74.09375 -385.433594 74.09375 -370.300781 C 74.09375 -357.019531 77.445312 -345.828125 84.140625 -336.730469 C 91.421875 -326.839844 101.449219 -318.242188 114.222656 -310.945312 C 127.902344 -303.128906 143.207031 -296.195312 160.136719 -290.152344 C 177.683594 -283.882812 195.859375 -277.617188 214.667969 -271.347656 C 233.863281 -264.949219 252.425781 -257.984375 270.355469 -250.460938 C 288.890625 -242.683594 305.71875 -233.3125 320.835938 -222.347656 C 336.644531 -210.882812 349.171875 -197.035156 358.421875 -180.808594 C 367.875 -164.21875 372.601562 -144.410156 372.601562 -121.386719 C 372.601562 -102.925781 368.023438 -84.976562 358.867188 -67.542969 C 349.863281 -50.402344 336.964844 -35.066406 320.171875 -21.527344 C 303.574219 -8.148438 283.707031 2.480469 260.5625 10.363281 C 237.507812 18.214844 211.582031 22.140625 182.789062 22.140625 C 160.699219 22.140625 139.582031 18.953125 119.445312 12.574219 C 99.695312 6.320312 81.558594 -1.515625 65.035156 -10.933594 C 48.878906 -20.144531 34.78125 -29.140625 22.746094 -37.921875 L 17.535156 -41.726562 L 17.535156 -124.160156 L 41.863281 -124.160156 L 52.9375 -107.019531 C 57.503906 -99.945312 64.398438 -91.039062 73.628906 -80.300781 C 82.710938 -69.726562 93.949219 -59.097656 107.339844 -48.417969 C 120.40625 -37.992188 135.589844 -29.234375 152.890625 -22.136719 C 169.765625 -15.210938 188.550781 -11.75 209.238281 -11.75 C 225.007812 -11.75 239.644531 -14.308594 253.152344 -19.425781 C 266.6875 -24.554688 278.472656 -31.5 288.503906 -40.261719 C 298.460938 -48.957031 306.214844 -58.71875 311.773438 -69.554688 C 317.136719 -80.019531 319.820312 -90.839844 319.820312 -102.019531 C 319.820312 -117.09375 316.277344 -129.9375 309.199219 -140.558594 C 301.699219 -151.808594 291.46875 -161.519531 278.511719 -169.6875 C 264.679688 -178.40625 249.070312 -186.246094 231.683594 -193.199219 C 213.769531 -200.367188 195.304688 -207.222656 176.292969 -213.765625 C 156.832031 -220.46875 137.921875 -227.648438 119.566406 -235.308594 C 100.65625 -243.203125 83.601562 -252.351562 68.398438 -262.761719 C 52.410156 -273.714844 39.6875 -286.976562 30.238281 -302.550781 C 20.511719 -318.585938 15.644531 -337.390625 15.644531 -358.964844 Z M 41.03125 -358.964844 C 41.03125 -342.121094 44.671875 -327.707031 51.945312 -315.71875 C 59.5 -303.265625 69.765625 -292.597656 82.742188 -283.710938 C 96.507812 -274.285156 112.042969 -265.960938 129.347656 -258.738281 C 147.203125 -251.285156 165.605469 -244.296875 184.558594 -237.769531 C 203.960938 -231.089844 222.8125 -224.09375 241.109375 -216.773438 C 259.933594 -209.242188 276.914062 -200.707031 292.050781 -191.164062 C 308.0625 -181.070312 320.820312 -168.894531 330.324219 -154.640625 C 340.246094 -139.757812 345.207031 -122.214844 345.207031 -102.019531 C 345.207031 -86.753906 341.59375 -72.070312 334.363281 -57.972656 C 327.324219 -44.246094 317.605469 -31.96875 305.203125 -21.140625 C 292.878906 -10.378906 278.527344 -1.894531 262.148438 4.3125 C 245.742188 10.53125 228.105469 13.636719 209.238281 13.636719 C 185.210938 13.636719 163.21875 9.542969 143.253906 1.351562 C 123.714844 -6.664062 106.464844 -16.636719 91.507812 -28.570312 C 76.871094 -40.246094 64.492188 -51.972656 54.371094 -63.757812 C 44.390625 -75.375 36.804688 -85.203125 31.609375 -93.246094 L 24.289062 -104.582031 L 34.953125 -111.46875 L 34.953125 -98.773438 L 30.226562 -98.773438 L 30.226562 -111.46875 L 42.921875 -111.46875 L 42.921875 -48.175781 L 30.226562 -48.175781 L 37.710938 -58.429688 C 48.976562 -50.210938 62.277344 -41.730469 77.605469 -32.992188 C 92.570312 -24.460938 109.070312 -17.339844 127.109375 -11.628906 C 144.753906 -6.042969 163.3125 -3.246094 182.789062 -3.246094 C 208.78125 -3.246094 231.976562 -6.722656 252.378906 -13.667969 C 272.6875 -20.585938 289.972656 -29.792969 304.238281 -41.292969 C 318.300781 -52.628906 329.019531 -65.316406 336.390625 -79.347656 C 343.605469 -93.085938 347.214844 -107.101562 347.214844 -121.386719 C 347.214844 -139.925781 343.597656 -155.542969 336.363281 -168.238281 C 328.921875 -181.292969 318.78125 -192.476562 305.929688 -201.796875 C 292.394531 -211.613281 277.261719 -220.03125 260.53125 -227.054688 C 243.195312 -234.328125 225.230469 -241.066406 206.640625 -247.261719 C 187.664062 -253.585938 169.316406 -259.914062 151.597656 -266.242188 C 133.257812 -272.792969 116.601562 -280.34375 101.628906 -288.902344 C 85.746094 -297.976562 73.101562 -308.902344 63.695312 -321.683594 C 53.703125 -335.253906 48.707031 -351.460938 48.707031 -370.300781 C 48.707031 -390.429688 54.582031 -409.574219 66.332031 -427.734375 C 77.953125 -445.695312 94.929688 -460.390625 117.257812 -471.8125 C 139.382812 -483.132812 166.105469 -488.792969 197.429688 -488.792969 C 219.066406 -488.792969 237.980469 -485.863281 254.175781 -480.007812 C 270.273438 -474.183594 283.824219 -466.90625 294.824219 -458.175781 C 305.578125 -449.640625 314.265625 -441.015625 320.894531 -432.296875 C 327.414062 -423.714844 332.125 -416.34375 335.023438 -410.183594 L 338.804688 -402.152344 L 327.316406 -396.75 L 327.316406 -409.441406 L 332.039062 -409.441406 L 332.039062 -396.75 L 319.347656 -396.75 L 319.347656 -460.039062 L 332.039062 -460.039062 L 327.902344 -448.039062 C 310.207031 -454.140625 291.027344 -459.183594 270.363281 -463.160156 C 249.902344 -467.101562 225.589844 -469.074219 197.429688 -469.074219 C 163.035156 -469.074219 134.070312 -463.777344 110.535156 -453.1875 C 87.460938 -442.804688 70.054688 -429.269531 58.324219 -412.589844 C 46.796875 -396.203125 41.03125 -378.328125 41.03125 -358.964844 Z M 41.03125 -358.964844 "/></g></g></g><g fill="#ffffff" fill-opacity="1"><g transform="translate(3.88945, 498.385716)"><g><path d="M 28.34375 -358.953125 C 28.34375 -380.992188 34.875 -401.300781 47.9375 -419.875 C 61.007812 -438.457031 80.140625 -453.414062 105.328125 -464.75 C 130.515625 -476.09375 161.210938 -481.765625 197.421875 -481.765625 C 226.390625 -481.765625 251.5 -479.71875 272.75 -475.625 C 294.007812 -471.53125 313.769531 -466.332031 332.03125 -460.03125 L 332.03125 -396.75 L 327.3125 -396.75 C 327.3125 -396.75 326.050781 -399.421875 323.53125 -404.765625 C 321.007812 -410.117188 316.757812 -416.734375 310.78125 -424.609375 C 304.800781 -432.484375 296.847656 -440.351562 286.921875 -448.21875 C 277.003906 -456.09375 264.644531 -462.707031 249.84375 -468.0625 C 235.050781 -473.414062 217.578125 -476.09375 197.421875 -476.09375 C 168.140625 -476.09375 143.34375 -470.894531 123.03125 -460.5 C 102.726562 -450.113281 87.378906 -436.890625 76.984375 -420.828125 C 66.597656 -404.773438 61.40625 -387.929688 61.40625 -370.296875 C 61.40625 -354.234375 65.578125 -340.535156 73.921875 -329.203125 C 82.265625 -317.867188 93.597656 -308.109375 107.921875 -299.921875 C 122.242188 -291.734375 138.222656 -284.488281 155.859375 -278.1875 C 173.492188 -271.894531 191.753906 -265.597656 210.640625 -259.296875 C 229.535156 -253.003906 247.800781 -246.15625 265.4375 -238.75 C 283.070312 -231.351562 299.050781 -222.457031 313.375 -212.0625 C 327.707031 -201.675781 339.046875 -189.160156 347.390625 -174.515625 C 355.734375 -159.878906 359.90625 -142.171875 359.90625 -121.390625 C 359.90625 -105.015625 355.8125 -89.03125 347.625 -73.4375 C 339.4375 -57.851562 327.628906 -43.84375 312.203125 -31.40625 C 296.773438 -18.96875 278.195312 -9.046875 256.46875 -1.640625 C 234.738281 5.753906 210.175781 9.453125 182.78125 9.453125 C 162 9.453125 142.160156 6.457031 123.265625 0.46875 C 104.378906 -5.507812 87.0625 -12.984375 71.3125 -21.953125 C 55.570312 -30.929688 41.878906 -39.671875 30.234375 -48.171875 L 30.234375 -111.46875 L 34.953125 -111.46875 C 34.953125 -111.46875 37.390625 -107.6875 42.265625 -100.125 C 47.148438 -92.570312 54.394531 -83.207031 64 -72.03125 C 73.601562 -60.851562 85.410156 -49.671875 99.421875 -38.484375 C 113.429688 -27.304688 129.644531 -17.941406 148.0625 -10.390625 C 166.488281 -2.835938 186.878906 0.9375 209.234375 0.9375 C 226.554688 0.9375 242.691406 -1.894531 257.640625 -7.5625 C 272.597656 -13.226562 285.664062 -20.941406 296.84375 -30.703125 C 308.019531 -40.460938 316.757812 -51.484375 323.0625 -63.765625 C 329.363281 -76.046875 332.515625 -88.796875 332.515625 -102.015625 C 332.515625 -119.648438 328.257812 -134.84375 319.75 -147.59375 C 311.25 -160.34375 299.753906 -171.285156 285.265625 -180.421875 C 270.785156 -189.554688 254.492188 -197.742188 236.390625 -204.984375 C 218.285156 -212.222656 199.628906 -219.148438 180.421875 -225.765625 C 161.210938 -232.378906 142.554688 -239.460938 124.453125 -247.015625 C 106.347656 -254.578125 90.050781 -263.316406 75.5625 -273.234375 C 61.082031 -283.148438 49.59375 -295.113281 41.09375 -309.125 C 32.59375 -323.132812 28.34375 -339.742188 28.34375 -358.953125 Z M 28.34375 -358.953125 "/></g></g></g></g></g><g clip-path="url(#cee4f8860c)"><path fill="#ffffff" d="M 1168.621094 687.160156 C 1168.582031 685.445312 1168.507812 683.722656 1168.382812 681.996094 C 1168.320312 681.128906 1168.246094 680.261719 1168.15625 679.386719 C 1168.113281 678.945312 1168.0625 678.507812 1168.007812 678.058594 L 1167.921875 677.378906 L 1167.871094 677.023438 L 1167.804688 676.605469 L 1166.355469 667.222656 L 1158.238281 672.421875 C 1154.988281 674.5 1151.609375 676.324219 1148.105469 677.878906 C 1144.601562 679.4375 1140.972656 680.730469 1137.210938 681.8125 C 1133.457031 682.890625 1129.570312 683.78125 1125.601562 684.585938 C 1121.625 685.390625 1117.554688 686.113281 1113.445312 686.890625 C 1109.332031 687.664062 1105.175781 688.472656 1101.015625 689.398438 C 1096.855469 690.328125 1092.699219 691.367188 1088.570312 692.539062 C 1084.441406 693.703125 1080.355469 695.03125 1076.3125 696.464844 C 1074.292969 697.1875 1072.28125 697.9375 1070.285156 698.71875 C 1068.292969 699.507812 1066.3125 700.324219 1064.347656 701.167969 L 1063.90625 701.359375 L 1063.550781 701.515625 L 1062.839844 701.835938 L 1062.128906 702.152344 L 1061.773438 702.3125 L 1061.386719 702.496094 C 1060.359375 702.988281 1059.304688 703.476562 1058.335938 703.984375 C 1056.351562 704.972656 1054.429688 706.078125 1052.515625 707.195312 C 1048.726562 709.492188 1045.0625 711.996094 1041.621094 714.773438 C 1038.167969 717.527344 1034.914062 720.519531 1031.859375 723.683594 C 1028.8125 726.855469 1025.96875 730.207031 1023.335938 733.699219 C 1022.019531 735.445312 1020.765625 737.234375 1019.554688 739.050781 C 1018.347656 740.863281 1017.183594 742.703125 1016.078125 744.578125 C 1013.871094 748.328125 1011.871094 752.179688 1010.0625 756.117188 C 1008.261719 760.054688 1006.667969 764.082031 1005.265625 768.171875 C 1004.570312 770.222656 1003.929688 772.292969 1003.34375 774.386719 C 1003.050781 775.433594 1002.773438 776.488281 1002.515625 777.554688 C 1002.382812 778.085938 1002.257812 778.621094 1002.136719 779.167969 L 1001.957031 779.992188 L 1001.871094 780.414062 L 1001.777344 780.890625 L 997.59375 802.378906 L 1010.113281 784.539062 L 1010.34375 784.210938 L 1010.609375 783.84375 L 1011.15625 783.101562 C 1011.527344 782.605469 1011.910156 782.109375 1012.292969 781.613281 C 1013.066406 780.625 1013.859375 779.636719 1014.667969 778.664062 C 1016.289062 776.71875 1017.964844 774.800781 1019.6875 772.925781 C 1021.410156 771.046875 1023.183594 769.210938 1024.996094 767.414062 C 1026.808594 765.617188 1028.664062 763.859375 1030.558594 762.148438 C 1032.457031 760.4375 1034.390625 758.761719 1036.367188 757.140625 C 1038.339844 755.515625 1040.359375 753.945312 1042.414062 752.417969 C 1044.46875 750.894531 1046.566406 749.425781 1048.695312 748.003906 C 1050.828125 746.585938 1053 745.230469 1055.210938 743.929688 C 1057.414062 742.621094 1059.675781 741.414062 1061.953125 740.234375 C 1064.230469 739.054688 1066.558594 737.96875 1068.914062 736.941406 C 1071.265625 735.898438 1073.664062 734.976562 1076.082031 734.089844 C 1078.496094 733.199219 1080.957031 732.433594 1083.4375 731.714844 C 1085.921875 731.007812 1088.429688 730.394531 1090.960938 729.84375 L 1092.863281 729.464844 L 1093.820312 729.28125 L 1094.777344 729.121094 L 1096.695312 728.792969 L 1098.625 728.515625 C 1099.265625 728.417969 1099.910156 728.34375 1100.558594 728.269531 C 1101.203125 728.199219 1101.847656 728.113281 1102.496094 728.050781 C 1103.792969 727.945312 1105.089844 727.792969 1106.394531 727.730469 C 1107.042969 727.691406 1107.695312 727.644531 1108.347656 727.613281 L 1110.304688 727.542969 C 1110.628906 727.53125 1110.957031 727.511719 1111.285156 727.507812 L 1112.265625 727.496094 L 1114.230469 727.476562 C 1111.628906 727.179688 1109.011719 726.921875 1106.378906 726.832031 C 1105.066406 726.757812 1103.75 726.761719 1102.433594 726.738281 C 1101.773438 726.734375 1101.117188 726.753906 1100.457031 726.761719 C 1099.796875 726.769531 1099.136719 726.777344 1098.476562 726.8125 L 1096.496094 726.898438 C 1095.835938 726.933594 1095.179688 726.988281 1094.519531 727.039062 L 1093.53125 727.109375 L 1092.539062 727.207031 L 1090.566406 727.410156 C 1089.253906 727.582031 1087.933594 727.726562 1086.625 727.945312 C 1085.972656 728.050781 1085.3125 728.136719 1084.660156 728.257812 L 1082.703125 728.621094 C 1080.097656 729.140625 1077.496094 729.710938 1074.929688 730.414062 C 1072.359375 731.101562 1069.804688 731.878906 1067.289062 732.761719 C 1064.769531 733.632812 1062.269531 734.570312 1059.808594 735.609375 C 1057.347656 736.648438 1054.914062 737.753906 1052.523438 738.949219 C 1050.128906 740.136719 1047.769531 741.394531 1045.441406 742.714844 C 1043.117188 744.035156 1040.832031 745.433594 1038.585938 746.882812 C 1036.335938 748.335938 1034.125 749.84375 1031.960938 751.421875 C 1029.792969 752.992188 1027.660156 754.617188 1025.574219 756.296875 C 1023.210938 758.203125 1020.902344 760.171875 1018.640625 762.199219 C 1018.902344 761.671875 1019.164062 761.140625 1019.429688 760.617188 C 1021.222656 757.054688 1023.199219 753.59375 1025.332031 750.246094 C 1027.464844 746.902344 1029.761719 743.671875 1032.234375 740.597656 C 1034.695312 737.519531 1037.332031 734.589844 1040.125 731.84375 C 1042.917969 729.09375 1045.859375 726.515625 1048.964844 724.15625 C 1052.058594 721.785156 1055.3125 719.644531 1058.675781 717.699219 C 1060.371094 716.753906 1062.078125 715.820312 1063.828125 714.980469 C 1064.710938 714.535156 1065.550781 714.167969 1066.402344 713.769531 L 1066.722656 713.621094 L 1067.082031 713.46875 L 1067.796875 713.160156 L 1068.515625 712.855469 L 1068.871094 712.699219 L 1068.960938 712.664062 C 1068.941406 712.671875 1069.066406 712.617188 1068.929688 712.675781 L 1068.972656 712.65625 L 1069.148438 712.585938 C 1072.886719 711.054688 1076.65625 709.628906 1080.460938 708.316406 C 1084.269531 707.011719 1088.113281 705.828125 1091.996094 704.753906 C 1099.761719 702.601562 1107.671875 700.972656 1115.796875 699.472656 C 1119.859375 698.71875 1123.976562 697.972656 1128.152344 697.121094 C 1132.324219 696.261719 1136.558594 695.300781 1140.785156 694.042969 C 1145.007812 692.796875 1149.226562 691.277344 1153.300781 689.414062 C 1154.324219 688.945312 1155.339844 688.460938 1156.34375 687.953125 C 1156.464844 690.878906 1156.476562 693.820312 1156.355469 696.757812 C 1156.230469 699.820312 1155.984375 702.882812 1155.589844 705.917969 C 1155.195312 708.957031 1154.683594 711.976562 1154.007812 714.953125 C 1153.335938 717.933594 1152.527344 720.878906 1151.550781 723.765625 C 1150.585938 726.65625 1149.460938 729.484375 1148.175781 732.242188 C 1146.898438 735.003906 1145.449219 737.679688 1143.851562 740.269531 C 1142.242188 742.855469 1140.484375 745.351562 1138.570312 747.730469 C 1136.644531 750.105469 1134.585938 752.382812 1132.371094 754.515625 C 1130.167969 756.664062 1127.816406 758.671875 1125.355469 760.5625 C 1124.121094 761.503906 1122.863281 762.421875 1121.570312 763.292969 C 1120.28125 764.175781 1118.96875 765.023438 1117.625 765.832031 C 1114.949219 767.46875 1112.171875 768.960938 1109.324219 770.335938 C 1106.46875 771.699219 1103.550781 772.972656 1100.570312 774.109375 C 1097.585938 775.242188 1094.558594 776.292969 1091.476562 777.214844 C 1089.9375 777.6875 1088.390625 778.132812 1086.832031 778.554688 C 1085.273438 778.972656 1083.707031 779.363281 1082.136719 779.753906 L 1079.769531 780.304688 L 1077.390625 780.828125 L 1075.007812 781.328125 L 1072.609375 781.804688 C 1075.867188 781.78125 1079.132812 781.632812 1082.390625 781.359375 C 1083.207031 781.285156 1084.023438 781.222656 1084.839844 781.140625 C 1085.648438 781.046875 1086.464844 780.964844 1087.28125 780.863281 C 1088.90625 780.660156 1090.535156 780.445312 1092.160156 780.179688 L 1093.375 779.980469 L 1094.589844 779.761719 C 1095.402344 779.621094 1096.210938 779.457031 1097.019531 779.296875 C 1097.832031 779.140625 1098.632812 778.953125 1099.441406 778.785156 C 1100.25 778.601562 1101.050781 778.402344 1101.855469 778.210938 C 1103.457031 777.800781 1105.0625 777.375 1106.652344 776.894531 C 1108.246094 776.429688 1109.832031 775.910156 1111.402344 775.355469 C 1114.542969 774.234375 1117.65625 772.976562 1120.6875 771.527344 C 1123.726562 770.082031 1126.695312 768.457031 1129.566406 766.648438 C 1131.007812 765.75 1132.414062 764.792969 1133.792969 763.796875 C 1135.175781 762.804688 1136.535156 761.765625 1137.851562 760.679688 C 1140.492188 758.507812 1143.003906 756.160156 1145.351562 753.648438 C 1147.703125 751.136719 1149.886719 748.460938 1151.898438 745.65625 C 1153.910156 742.855469 1155.722656 739.90625 1157.367188 736.871094 C 1159.003906 733.832031 1160.449219 730.691406 1161.714844 727.488281 C 1162.972656 724.28125 1164.058594 721.007812 1164.960938 717.691406 C 1165.855469 714.375 1166.589844 711.015625 1167.15625 707.632812 C 1167.707031 704.253906 1168.121094 700.851562 1168.359375 697.433594 C 1168.597656 694.019531 1168.699219 690.59375 1168.621094 687.160156 " fill-opacity="1" fill-rule="nonzero"/></g><g transform="matrix(1, 0, 0, 1, 550, 1006)"><g clip-path="url(#79d4c48998)"><g fill="#ffffff" fill-opacity="1"><g transform="translate(2.755347, 69.4502)"><g><path d="M 0 -64.328125 L 0 -64.984375 L 21.3125 -64.984375 L 21.3125 -64.328125 C 19.019531 -64.328125 17.273438 -64.023438 16.078125 -63.421875 C 14.890625 -62.816406 14.117188 -61.972656 13.765625 -60.890625 C 13.421875 -59.804688 13.378906 -58.550781 13.640625 -57.125 C 13.898438 -55.695312 14.335938 -54.15625 14.953125 -52.5 L 32.484375 -6.234375 C 34.179688 -11.003906 35.925781 -15.78125 37.71875 -20.5625 C 39.519531 -25.351562 41.285156 -30.15625 43.015625 -34.96875 L 35.9375 -53.609375 C 34.507812 -57.203125 33.164062 -59.882812 31.90625 -61.65625 C 30.644531 -63.4375 29.019531 -64.328125 27.03125 -64.328125 L 27.03125 -64.984375 L 60.046875 -64.984375 L 60.046875 -64.328125 C 58.054688 -64.328125 56.421875 -63.4375 55.140625 -61.65625 C 53.859375 -59.882812 52.523438 -57.203125 51.140625 -53.609375 L 46.328125 -40.9375 L 59.53125 -6.234375 C 62.207031 -13.898438 65 -21.566406 67.90625 -29.234375 C 70.8125 -36.910156 73.519531 -44.601562 76.03125 -52.3125 C 76.46875 -53.613281 76.75 -54.96875 76.875 -56.375 C 77.007812 -57.78125 76.859375 -59.078125 76.421875 -60.265625 C 75.984375 -61.460938 75.15625 -62.4375 73.9375 -63.1875 C 72.726562 -63.945312 70.976562 -64.328125 68.6875 -64.328125 L 68.6875 -64.984375 L 87.078125 -64.984375 L 87.078125 -64.328125 C 85.085938 -64.328125 83.453125 -63.4375 82.171875 -61.65625 C 80.890625 -59.882812 79.554688 -57.203125 78.171875 -53.609375 L 57.375 1.296875 L 56.734375 1.296875 L 43.546875 -33.53125 L 30.34375 1.296875 L 29.703125 1.296875 L 8.90625 -53.609375 C 7.476562 -57.203125 6.132812 -59.882812 4.875 -61.65625 C 3.613281 -63.4375 1.988281 -64.328125 0 -64.328125 Z M 44.84375 -64.265625 C 43.28125 -64.265625 42.140625 -63.914062 41.421875 -63.21875 C 40.710938 -62.53125 40.320312 -61.613281 40.25 -60.46875 C 40.1875 -59.320312 40.328125 -58.054688 40.671875 -56.671875 C 41.023438 -55.285156 41.460938 -53.894531 41.984375 -52.5 L 45.75 -42.625 C 46.3125 -44.226562 46.851562 -45.84375 47.375 -47.46875 C 47.894531 -49.09375 48.4375 -50.707031 49 -52.3125 C 49.382812 -53.4375 49.726562 -54.679688 50.03125 -56.046875 C 50.34375 -57.410156 50.441406 -58.71875 50.328125 -59.96875 C 50.222656 -61.226562 49.757812 -62.257812 48.9375 -63.0625 C 48.113281 -63.863281 46.75 -64.265625 44.84375 -64.265625 Z M 44.84375 -64.265625 "/></g></g></g><g fill="#ffffff" fill-opacity="1"><g transform="translate(89.813567, 69.4502)"><g><path d="M 1.953125 -64.328125 L 1.953125 -64.984375 L 48.484375 -64.984375 L 48.484375 -56.21875 L 47.828125 -56.21875 L 47.828125 -56.46875 C 47.828125 -58.632812 45.78125 -60.484375 41.6875 -62.015625 C 37.59375 -63.554688 31.796875 -64.328125 24.296875 -64.328125 L 13.515625 -64.328125 L 13.515625 -36.390625 C 14.515625 -37.347656 15.648438 -38.082031 16.921875 -38.59375 C 18.203125 -39.113281 19.582031 -39.375 21.0625 -39.375 C 22.65625 -39.375 24.113281 -39.164062 25.4375 -38.75 C 26.757812 -38.34375 28.015625 -37.878906 29.203125 -37.359375 C 30.398438 -36.847656 31.601562 -36.382812 32.8125 -35.96875 C 34.03125 -35.550781 35.351562 -35.34375 36.78125 -35.34375 C 38.039062 -35.34375 39.15625 -35.675781 40.125 -36.34375 C 41.101562 -37.019531 41.59375 -37.925781 41.59375 -39.0625 L 42.234375 -39.0625 C 42.234375 -37.15625 41.484375 -35.484375 39.984375 -34.046875 C 38.492188 -32.617188 36.472656 -31.90625 33.921875 -31.90625 C 31.929688 -31.90625 30.195312 -32.1875 28.71875 -32.75 C 27.25 -33.3125 25.925781 -33.960938 24.75 -34.703125 C 23.582031 -35.441406 22.46875 -36.101562 21.40625 -36.6875 C 20.34375 -37.269531 19.226562 -37.582031 18.0625 -37.625 C 17.113281 -37.664062 16.25 -37.46875 15.46875 -37.03125 C 14.6875 -36.601562 14.035156 -36.039062 13.515625 -35.34375 L 13.515625 -0.65625 L 21.828125 -0.65625 C 22.867188 -0.65625 24.222656 -0.6875 25.890625 -0.75 C 27.554688 -0.8125 29.363281 -0.953125 31.3125 -1.171875 C 33.269531 -1.390625 35.210938 -1.722656 37.140625 -2.171875 C 39.066406 -2.628906 40.84375 -3.222656 42.46875 -3.953125 C 44.09375 -4.691406 45.390625 -5.613281 46.359375 -6.71875 C 47.335938 -7.832031 47.828125 -9.164062 47.828125 -10.71875 L 48.484375 -10.71875 L 48.484375 0 L 1.953125 0 L 1.953125 -0.65625 C 3.816406 -0.65625 5.171875 -1.21875 6.015625 -2.34375 C 6.859375 -3.46875 7.382812 -5.304688 7.59375 -7.859375 C 7.8125 -10.421875 7.921875 -13.820312 7.921875 -18.0625 L 7.921875 -46.921875 C 7.921875 -51.210938 7.8125 -54.625 7.59375 -57.15625 C 7.382812 -59.6875 6.859375 -61.515625 6.015625 -62.640625 C 5.171875 -63.765625 3.816406 -64.328125 1.953125 -64.328125 Z M 1.953125 -64.328125 "/></g></g></g><g fill="#ffffff" fill-opacity="1"><g transform="translate(140.229363, 69.4502)"><g><path d="M 1.953125 0 L 1.953125 -0.65625 C 3.816406 -0.65625 5.171875 -1.21875 6.015625 -2.34375 C 6.859375 -3.46875 7.382812 -5.304688 7.59375 -7.859375 C 7.8125 -10.421875 7.921875 -13.820312 7.921875 -18.0625 L 7.921875 -46.921875 C 7.921875 -51.210938 7.8125 -54.625 7.59375 -57.15625 C 7.382812 -59.6875 6.859375 -61.515625 6.015625 -62.640625 C 5.171875 -63.765625 3.816406 -64.328125 1.953125 -64.328125 L 1.953125 -64.984375 L 7.140625 -64.984375 C 10.566406 -64.984375 13.726562 -65.195312 16.625 -65.625 C 19.53125 -66.0625 22.414062 -66.28125 25.28125 -66.28125 C 30.300781 -66.28125 34.648438 -65.367188 38.328125 -63.546875 C 42.015625 -61.734375 45.082031 -59.242188 47.53125 -56.078125 C 49.976562 -52.921875 51.796875 -49.316406 52.984375 -45.265625 C 54.179688 -41.210938 54.78125 -36.953125 54.78125 -32.484375 C 54.78125 -28.023438 54.179688 -23.769531 52.984375 -19.71875 C 51.796875 -15.664062 49.976562 -12.054688 47.53125 -8.890625 C 45.082031 -5.734375 42.015625 -3.242188 38.328125 -1.421875 C 34.648438 0.390625 30.300781 1.296875 25.28125 1.296875 C 22.414062 1.296875 19.53125 1.078125 16.625 0.640625 C 13.726562 0.210938 10.566406 0 7.140625 0 Z M 13.453125 -63.546875 L 13.453125 -1.421875 C 15.359375 -0.859375 17.265625 -0.414062 19.171875 -0.09375 C 21.078125 0.226562 23.09375 0.390625 25.21875 0.390625 C 29.238281 0.390625 32.742188 -0.472656 35.734375 -2.203125 C 38.722656 -3.941406 41.210938 -6.335938 43.203125 -9.390625 C 45.203125 -12.441406 46.695312 -15.945312 47.6875 -19.90625 C 48.6875 -23.875 49.1875 -28.066406 49.1875 -32.484375 C 49.1875 -36.910156 48.6875 -41.101562 47.6875 -45.0625 C 46.695312 -49.03125 45.203125 -52.539062 43.203125 -55.59375 C 41.210938 -58.644531 38.722656 -61.035156 35.734375 -62.765625 C 32.742188 -64.503906 29.238281 -65.375 25.21875 -65.375 C 23.09375 -65.375 21.078125 -65.222656 19.171875 -64.921875 C 17.265625 -64.617188 15.359375 -64.160156 13.453125 -63.546875 Z M 13.453125 -63.546875 "/></g></g></g><g fill="#ffffff" fill-opacity="1"><g transform="translate(198.896212, 69.4502)"><g><path d="M 1.953125 0 L 1.953125 -0.65625 C 3.816406 -0.65625 5.171875 -1.21875 6.015625 -2.34375 C 6.859375 -3.46875 7.382812 -5.304688 7.59375 -7.859375 C 7.8125 -10.421875 7.921875 -13.820312 7.921875 -18.0625 L 7.921875 -46.921875 C 7.921875 -51.210938 7.8125 -54.625 7.59375 -57.15625 C 7.382812 -59.6875 6.859375 -61.515625 6.015625 -62.640625 C 5.171875 -63.765625 3.816406 -64.328125 1.953125 -64.328125 L 1.953125 -64.984375 L 7.140625 -64.984375 C 10.566406 -64.984375 13.726562 -65.195312 16.625 -65.625 C 19.53125 -66.0625 22.414062 -66.28125 25.28125 -66.28125 C 30.300781 -66.28125 34.648438 -65.367188 38.328125 -63.546875 C 42.015625 -61.734375 45.082031 -59.242188 47.53125 -56.078125 C 49.976562 -52.921875 51.796875 -49.316406 52.984375 -45.265625 C 54.179688 -41.210938 54.78125 -36.953125 54.78125 -32.484375 C 54.78125 -28.023438 54.179688 -23.769531 52.984375 -19.71875 C 51.796875 -15.664062 49.976562 -12.054688 47.53125 -8.890625 C 45.082031 -5.734375 42.015625 -3.242188 38.328125 -1.421875 C 34.648438 0.390625 30.300781 1.296875 25.28125 1.296875 C 22.414062 1.296875 19.53125 1.078125 16.625 0.640625 C 13.726562 0.210938 10.566406 0 7.140625 0 Z M 13.453125 -63.546875 L 13.453125 -1.421875 C 15.359375 -0.859375 17.265625 -0.414062 19.171875 -0.09375 C 21.078125 0.226562 23.09375 0.390625 25.21875 0.390625 C 29.238281 0.390625 32.742188 -0.472656 35.734375 -2.203125 C 38.722656 -3.941406 41.210938 -6.335938 43.203125 -9.390625 C 45.203125 -12.441406 46.695312 -15.945312 47.6875 -19.90625 C 48.6875 -23.875 49.1875 -28.066406 49.1875 -32.484375 C 49.1875 -36.910156 48.6875 -41.101562 47.6875 -45.0625 C 46.695312 -49.03125 45.203125 -52.539062 43.203125 -55.59375 C 41.210938 -58.644531 38.722656 -61.035156 35.734375 -62.765625 C 32.742188 -64.503906 29.238281 -65.375 25.21875 -65.375 C 23.09375 -65.375 21.078125 -65.222656 19.171875 -64.921875 C 17.265625 -64.617188 15.359375 -64.160156 13.453125 -63.546875 Z M 13.453125 -63.546875 "/></g></g></g><g fill="#ffffff" fill-opacity="1"><g transform="translate(257.563061, 69.4502)"><g><path d="M 1.953125 -64.328125 L 1.953125 -64.984375 L 19.5 -64.984375 L 19.5 -64.328125 C 17.632812 -64.328125 16.28125 -63.765625 15.4375 -62.640625 C 14.59375 -61.515625 14.0625 -59.6875 13.84375 -57.15625 C 13.625 -54.625 13.515625 -51.210938 13.515625 -46.921875 L 13.515625 -18.0625 C 13.515625 -13.820312 13.625 -10.421875 13.84375 -7.859375 C 14.0625 -5.304688 14.59375 -3.46875 15.4375 -2.34375 C 16.28125 -1.21875 17.632812 -0.65625 19.5 -0.65625 L 19.5 0 L 1.953125 0 L 1.953125 -0.65625 C 3.816406 -0.65625 5.171875 -1.21875 6.015625 -2.34375 C 6.859375 -3.46875 7.382812 -5.304688 7.59375 -7.859375 C 7.8125 -10.421875 7.921875 -13.820312 7.921875 -18.0625 L 7.921875 -46.921875 C 7.921875 -51.210938 7.8125 -54.625 7.59375 -57.15625 C 7.382812 -59.6875 6.859375 -61.515625 6.015625 -62.640625 C 5.171875 -63.765625 3.816406 -64.328125 1.953125 -64.328125 Z M 1.953125 -64.328125 "/></g></g></g><g fill="#ffffff" fill-opacity="1"><g transform="translate(279.002787, 69.4502)"><g><path d="M 1.953125 -64.984375 L 13.328125 -64.984375 L 49.71875 -9.484375 L 49.71875 -37.828125 C 49.71875 -44.148438 49.195312 -49.25 48.15625 -53.125 C 47.113281 -57 45.757812 -59.832031 44.09375 -61.625 C 42.425781 -63.425781 40.660156 -64.328125 38.796875 -64.328125 L 38.796875 -64.984375 L 56.34375 -64.984375 L 56.34375 -64.328125 C 54.476562 -64.328125 53.125 -63.765625 52.28125 -62.640625 C 51.4375 -61.515625 50.90625 -59.6875 50.6875 -57.15625 C 50.46875 -54.625 50.359375 -51.210938 50.359375 -46.921875 L 50.359375 1.296875 L 49.71875 1.296875 L 8.578125 -61.34375 L 8.578125 -27.15625 C 8.578125 -20.875 9.097656 -15.785156 10.140625 -11.890625 C 11.179688 -7.992188 12.535156 -5.144531 14.203125 -3.34375 C 15.867188 -1.550781 17.632812 -0.65625 19.5 -0.65625 L 19.5 0 L 1.953125 0 L 1.953125 -0.65625 C 3.816406 -0.65625 5.171875 -1.21875 6.015625 -2.34375 C 6.859375 -3.46875 7.382812 -5.304688 7.59375 -7.859375 C 7.8125 -10.421875 7.921875 -13.820312 7.921875 -18.0625 L 7.921875 -46.921875 C 7.921875 -51.210938 7.8125 -54.625 7.59375 -57.15625 C 7.382812 -59.6875 6.859375 -61.515625 6.015625 -62.640625 C 5.171875 -63.765625 3.816406 -64.328125 1.953125 -64.328125 Z M 1.953125 -64.984375 "/></g></g></g><g fill="#ffffff" fill-opacity="1"><g transform="translate(337.279804, 69.4502)"><g><path d="M 3.90625 -32.484375 C 3.90625 -37.378906 4.640625 -41.875 6.109375 -45.96875 C 7.578125 -50.070312 9.632812 -53.648438 12.28125 -56.703125 C 14.925781 -59.753906 18.003906 -62.113281 21.515625 -63.78125 C 25.023438 -65.445312 28.789062 -66.28125 32.8125 -66.28125 C 36.800781 -66.28125 40.253906 -66 43.171875 -65.4375 C 46.097656 -64.875 48.820312 -64.160156 51.34375 -63.296875 L 51.34375 -54.59375 L 50.6875 -54.59375 C 50.6875 -54.59375 50.507812 -54.957031 50.15625 -55.6875 C 49.8125 -56.425781 49.226562 -57.335938 48.40625 -58.421875 C 47.582031 -59.503906 46.488281 -60.585938 45.125 -61.671875 C 43.757812 -62.753906 42.054688 -63.660156 40.015625 -64.390625 C 37.984375 -65.128906 35.582031 -65.5 32.8125 -65.5 C 29.4375 -65.5 26.335938 -64.675781 23.515625 -63.03125 C 20.703125 -61.382812 18.265625 -59.078125 16.203125 -56.109375 C 14.148438 -53.140625 12.5625 -49.648438 11.4375 -45.640625 C 10.3125 -41.640625 9.75 -37.253906 9.75 -32.484375 C 9.75 -27.765625 10.351562 -23.390625 11.5625 -19.359375 C 12.78125 -15.335938 14.445312 -11.84375 16.5625 -8.875 C 18.6875 -5.90625 21.144531 -3.597656 23.9375 -1.953125 C 26.738281 -0.304688 29.695312 0.515625 32.8125 0.515625 C 35.675781 0.515625 38.132812 0 40.1875 -1.03125 C 42.25 -2.070312 43.953125 -3.304688 45.296875 -4.734375 C 46.640625 -6.171875 47.625 -7.5625 48.25 -8.90625 C 48.875 -10.25 49.1875 -11.203125 49.1875 -11.765625 L 49.1875 -20.921875 C 49.1875 -23.484375 48.742188 -25.5 47.859375 -26.96875 C 46.972656 -28.4375 45.789062 -29.515625 44.3125 -30.203125 C 42.84375 -30.898438 41.1875 -31.347656 39.34375 -31.546875 C 37.507812 -31.742188 35.625 -31.820312 33.6875 -31.78125 C 31.757812 -31.738281 29.929688 -31.71875 28.203125 -31.71875 C 26.640625 -31.71875 25.21875 -31.8125 23.9375 -32 C 22.664062 -32.195312 21.648438 -32.617188 20.890625 -33.265625 C 20.128906 -33.921875 19.75 -34.875 19.75 -36.125 C 19.75 -37.988281 20.300781 -39.515625 21.40625 -40.703125 C 22.507812 -41.898438 23.832031 -42.800781 25.375 -43.40625 C 26.914062 -44.007812 28.335938 -44.3125 29.640625 -44.3125 C 32.054688 -44.3125 34.25 -44.019531 36.21875 -43.4375 C 38.195312 -42.851562 40.0625 -42.160156 41.8125 -41.359375 C 43.570312 -40.554688 45.359375 -39.863281 47.171875 -39.28125 C 48.992188 -38.695312 50.945312 -38.40625 53.03125 -38.40625 C 54.539062 -38.40625 55.628906 -38.566406 56.296875 -38.890625 C 56.972656 -39.210938 57.382812 -39.535156 57.53125 -39.859375 C 57.6875 -40.191406 57.765625 -40.359375 57.765625 -40.359375 C 58.117188 -39.015625 58.007812 -37.863281 57.4375 -36.90625 C 56.875 -35.957031 56.03125 -35.234375 54.90625 -34.734375 C 53.78125 -34.234375 52.546875 -33.984375 51.203125 -33.984375 C 49.253906 -33.984375 47.257812 -34.296875 45.21875 -34.921875 C 43.1875 -35.554688 41.175781 -36.285156 39.1875 -37.109375 C 37.195312 -37.929688 35.269531 -38.65625 33.40625 -39.28125 C 31.539062 -39.90625 29.804688 -40.21875 28.203125 -40.21875 C 26.210938 -40.21875 24.425781 -39.859375 22.84375 -39.140625 C 21.257812 -38.429688 20.46875 -37.320312 20.46875 -35.8125 C 20.46875 -34.726562 20.910156 -33.9375 21.796875 -33.4375 C 22.691406 -32.9375 23.90625 -32.628906 25.4375 -32.515625 C 26.976562 -32.410156 28.710938 -32.378906 30.640625 -32.421875 C 32.566406 -32.460938 34.550781 -32.484375 36.59375 -32.484375 C 38.800781 -32.484375 40.988281 -32.363281 43.15625 -32.125 C 45.320312 -31.894531 47.28125 -31.390625 49.03125 -30.609375 C 50.78125 -29.828125 52.175781 -28.664062 53.21875 -27.125 C 54.257812 -25.59375 54.78125 -23.523438 54.78125 -20.921875 L 54.78125 -11.5625 C 52.3125 -7.488281 49.191406 -4.328125 45.421875 -2.078125 C 41.648438 0.171875 37.445312 1.296875 32.8125 1.296875 C 28.789062 1.296875 25.023438 0.460938 21.515625 -1.203125 C 18.003906 -2.867188 14.925781 -5.226562 12.28125 -8.28125 C 9.632812 -11.332031 7.578125 -14.914062 6.109375 -19.03125 C 4.640625 -23.15625 3.90625 -27.640625 3.90625 -32.484375 Z M 3.90625 -32.484375 "/></g></g></g></g></g></svg>